<svg width="203" height="56" viewBox="0 0 203 56" fill="none" xmlns="http://www.w3.org/2000/svg">
<path d="M63.5381 47.7H66.9585L69.6142 52.4844L72.2803 47.7H75.5767V55.3881H73.2V50.0663L70.1722 55.3881H68.8805L65.8528 50.0663V55.3881H63.5381V47.7Z" fill="#52E8FF"/>
<path d="M79.5788 55.3881H77.1711V47.7H79.5788V55.3881Z" fill="#52E8FF"/>
<path d="M85.8376 49.3637L84.4116 52.2467H87.3257L85.8376 49.3637ZM88.2144 53.9827H83.5539L82.8616 55.3881H80.4125L84.2979 47.7H87.4187L91.5314 55.3881H88.9377L88.2144 53.9827Z" fill="#52E8FF"/>
<path d="M92.3679 47.7H95.7883L98.444 52.4844L101.11 47.7H104.406V55.3881H102.03V50.0663L99.002 55.3881H97.7103L94.6826 50.0663V55.3881H92.3679V47.7Z" fill="#52E8FF"/>
<path d="M108.409 55.3881H106.001V47.7H108.409V55.3881Z" fill="#52E8FF"/>
<mask id="path-2-outside-1_112_1328" maskUnits="userSpaceOnUse" x="0" y="-0.418457" width="57" height="46" fill="black">
<rect fill="white" y="-0.418457" width="57" height="46"/>
<path fill-rule="evenodd" clip-rule="evenodd" d="M44.4307 28.3116C46.8488 25.4139 49.3593 22.4054 52.6715 18.3173C52.9201 18.0105 52.7019 17.5524 52.307 17.5524H39.0893C38.8299 17.5524 38.6196 17.7627 38.6196 18.0221V34.0132C38.6196 34.4549 39.1744 34.6525 39.4546 34.3111C41.2157 32.1643 42.8022 30.2631 44.4307 28.3116ZM34.2894 25.3873C34.3571 25.3059 34.3925 25.2027 34.3925 25.0969V18.0221C34.3925 17.7627 34.1822 17.5524 33.9227 17.5524H29.5436C26.6636 17.5903 24.4535 18.4136 22.9978 20.1631C22.9302 20.2445 22.8948 20.3477 22.8948 20.4535V27.5283C22.8948 27.7877 23.1051 27.998 23.3645 27.998H27.7436C30.6236 27.9601 32.8337 27.1368 34.2894 25.3873ZM34.3925 31.7572C34.3925 31.4718 34.1399 31.2513 33.8555 31.2751C33.248 31.326 32.4331 31.3549 31.4735 31.3549H23.3645C23.1051 31.3549 22.8948 31.5652 22.8948 31.8246V36.8875L22.8948 37.1035C22.8942 44.162 22.8942 44.2248 28.9869 44.4094C29.4221 44.4094 29.4221 44.9689 28.9869 44.9689C27.9525 44.9689 25.7514 44.9279 23.8753 44.893C22.4817 44.8671 21.2673 44.8445 20.8434 44.8445C20.4195 44.8445 18.9906 44.8671 17.3507 44.893C15.1431 44.9279 12.5532 44.9689 11.5187 44.9689C11.0836 44.9689 11.0836 44.4094 11.5187 44.4094C18.2947 44.2229 18.6676 44.1607 18.6676 36.8875V31.8246C18.6676 31.5652 18.4573 31.3549 18.1979 31.3549H5.36449C4.36986 31.3549 3.18874 31.4171 1.82112 31.5414C0.577839 31.7279 0.577839 31.1684 3.00224 28.1845C10.3144 19.3299 13.1644 14.8326 19.3674 5.04399C19.9144 4.18075 20.4875 3.27635 21.092 2.32419C21.5894 1.51606 21.9623 1.08091 22.7705 0.894414C25.0706 0.210609 26.0652 0.832251 25.3192 2.38636C25.0827 2.87756 24.777 3.34747 24.4628 3.83036C23.7035 4.99749 22.8948 6.24047 22.8948 8.0433V13.7932C22.8948 14.0786 23.1474 14.2991 23.4318 14.2753C24.0392 14.2244 24.8542 14.1955 25.8138 14.1955H33.9227C34.1822 14.1955 34.3925 13.9852 34.3925 13.7258V8.6629C34.3925 8.59017 34.3925 8.51817 34.3925 8.44689C34.3931 1.38842 34.3931 1.32565 28.3004 1.14102C27.8652 1.14102 27.8652 0.581543 28.3004 0.581543C29.3348 0.581543 31.5358 0.622477 33.412 0.65737C34.8056 0.683287 36.02 0.705871 36.4439 0.705871C36.8678 0.705871 38.2967 0.683287 39.9365 0.65737C42.1442 0.622477 44.7341 0.581543 45.7685 0.581543C46.2037 0.581543 46.2037 1.14102 45.7685 1.14102C38.9926 1.32751 38.6196 1.38968 38.6196 8.6629V13.7258C38.6196 13.9852 38.8299 14.1955 39.0893 14.1955H51.9228C52.9174 14.1955 54.0985 14.1334 55.4661 14.009C56.7094 13.8225 56.7094 14.382 54.285 17.3659C46.9728 26.2205 44.1229 30.7178 37.9199 40.5064C37.3729 41.3697 36.7998 42.2741 36.1952 43.2262C35.6979 44.0344 35.3249 44.4695 34.5168 44.656C32.2167 45.3398 31.2221 44.7182 31.968 43.1641C32.2045 42.6729 32.5103 42.2029 32.8244 41.7201C33.5838 40.5529 34.3925 39.3099 34.3925 37.5071V31.7572ZM12.8566 17.2388C10.4385 20.1365 7.92792 23.145 4.61578 27.2331C4.36718 27.5399 4.58535 27.998 4.98027 27.998H18.1979C18.4573 27.998 18.6676 27.7877 18.6676 27.5283V11.5372C18.6676 11.0955 18.1128 10.8979 17.8327 11.2394C16.0715 13.3861 14.485 15.2873 12.8566 17.2388Z"/>
</mask>
<path fill-rule="evenodd" clip-rule="evenodd" d="M44.4307 28.3116C46.8488 25.4139 49.3593 22.4054 52.6715 18.3173C52.9201 18.0105 52.7019 17.5524 52.307 17.5524H39.0893C38.8299 17.5524 38.6196 17.7627 38.6196 18.0221V34.0132C38.6196 34.4549 39.1744 34.6525 39.4546 34.3111C41.2157 32.1643 42.8022 30.2631 44.4307 28.3116ZM34.2894 25.3873C34.3571 25.3059 34.3925 25.2027 34.3925 25.0969V18.0221C34.3925 17.7627 34.1822 17.5524 33.9227 17.5524H29.5436C26.6636 17.5903 24.4535 18.4136 22.9978 20.1631C22.9302 20.2445 22.8948 20.3477 22.8948 20.4535V27.5283C22.8948 27.7877 23.1051 27.998 23.3645 27.998H27.7436C30.6236 27.9601 32.8337 27.1368 34.2894 25.3873ZM34.3925 31.7572C34.3925 31.4718 34.1399 31.2513 33.8555 31.2751C33.248 31.326 32.4331 31.3549 31.4735 31.3549H23.3645C23.1051 31.3549 22.8948 31.5652 22.8948 31.8246V36.8875L22.8948 37.1035C22.8942 44.162 22.8942 44.2248 28.9869 44.4094C29.4221 44.4094 29.4221 44.9689 28.9869 44.9689C27.9525 44.9689 25.7514 44.9279 23.8753 44.893C22.4817 44.8671 21.2673 44.8445 20.8434 44.8445C20.4195 44.8445 18.9906 44.8671 17.3507 44.893C15.1431 44.9279 12.5532 44.9689 11.5187 44.9689C11.0836 44.9689 11.0836 44.4094 11.5187 44.4094C18.2947 44.2229 18.6676 44.1607 18.6676 36.8875V31.8246C18.6676 31.5652 18.4573 31.3549 18.1979 31.3549H5.36449C4.36986 31.3549 3.18874 31.4171 1.82112 31.5414C0.577839 31.7279 0.577839 31.1684 3.00224 28.1845C10.3144 19.3299 13.1644 14.8326 19.3674 5.04399C19.9144 4.18075 20.4875 3.27635 21.092 2.32419C21.5894 1.51606 21.9623 1.08091 22.7705 0.894414C25.0706 0.210609 26.0652 0.832251 25.3192 2.38636C25.0827 2.87756 24.777 3.34747 24.4628 3.83036C23.7035 4.99749 22.8948 6.24047 22.8948 8.0433V13.7932C22.8948 14.0786 23.1474 14.2991 23.4318 14.2753C24.0392 14.2244 24.8542 14.1955 25.8138 14.1955H33.9227C34.1822 14.1955 34.3925 13.9852 34.3925 13.7258V8.6629C34.3925 8.59017 34.3925 8.51817 34.3925 8.44689C34.3931 1.38842 34.3931 1.32565 28.3004 1.14102C27.8652 1.14102 27.8652 0.581543 28.3004 0.581543C29.3348 0.581543 31.5358 0.622477 33.412 0.65737C34.8056 0.683287 36.02 0.705871 36.4439 0.705871C36.8678 0.705871 38.2967 0.683287 39.9365 0.65737C42.1442 0.622477 44.7341 0.581543 45.7685 0.581543C46.2037 0.581543 46.2037 1.14102 45.7685 1.14102C38.9926 1.32751 38.6196 1.38968 38.6196 8.6629V13.7258C38.6196 13.9852 38.8299 14.1955 39.0893 14.1955H51.9228C52.9174 14.1955 54.0985 14.1334 55.4661 14.009C56.7094 13.8225 56.7094 14.382 54.285 17.3659C46.9728 26.2205 44.1229 30.7178 37.9199 40.5064C37.3729 41.3697 36.7998 42.2741 36.1952 43.2262C35.6979 44.0344 35.3249 44.4695 34.5168 44.656C32.2167 45.3398 31.2221 44.7182 31.968 43.1641C32.2045 42.6729 32.5103 42.2029 32.8244 41.7201C33.5838 40.5529 34.3925 39.3099 34.3925 37.5071V31.7572ZM12.8566 17.2388C10.4385 20.1365 7.92792 23.145 4.61578 27.2331C4.36718 27.5399 4.58535 27.998 4.98027 27.998H18.1979C18.4573 27.998 18.6676 27.7877 18.6676 27.5283V11.5372C18.6676 11.0955 18.1128 10.8979 17.8327 11.2394C16.0715 13.3861 14.485 15.2873 12.8566 17.2388Z" fill="white"/>
<path d="M44.4307 28.3116L44.5425 28.4049L44.4307 28.3116ZM29.5436 17.5524V17.4067L29.5417 17.4067L29.5436 17.5524ZM27.7436 27.998V28.1437L27.7455 28.1437L27.7436 27.998ZM22.8948 36.8875L23.0405 36.8875V36.8875H22.8948ZM22.8948 37.1035L23.0404 37.1035V37.1035L22.8948 37.1035ZM28.9869 44.4094L28.9825 44.555H28.9869V44.4094ZM23.8753 44.893L23.878 44.7474L23.8753 44.893ZM17.3507 44.893L17.3484 44.7474L17.3507 44.893ZM11.5187 44.4094V44.5551L11.5228 44.555L11.5187 44.4094ZM1.82112 31.5414L1.80792 31.3961L1.79952 31.3974L1.82112 31.5414ZM3.00224 28.1845L2.88994 28.0918L2.88921 28.0927L3.00224 28.1845ZM19.3674 5.04399L19.4904 5.12195L19.3674 5.04399ZM21.092 2.32419L21.215 2.40227L21.2161 2.40053L21.092 2.32419ZM22.7705 0.894414L22.8033 1.03661L22.812 1.03402L22.7705 0.894414ZM25.3192 2.38636L25.4504 2.44954L25.4505 2.44938L25.3192 2.38636ZM24.4628 3.83036L24.3407 3.75093L24.4628 3.83036ZM34.3925 8.44689L34.5381 8.4469V8.4469L34.3925 8.44689ZM28.3004 1.14102L28.3048 0.995374H28.3004V1.14102ZM33.412 0.65737L33.4093 0.802992L33.412 0.65737ZM39.9365 0.65737L39.9388 0.802999L39.9365 0.65737ZM45.7685 1.14102V0.995319L45.7645 0.995429L45.7685 1.14102ZM55.4661 14.009L55.4793 14.1543L55.4877 14.1531L55.4661 14.009ZM54.285 17.3659L54.3973 17.4586L54.398 17.4577L54.285 17.3659ZM37.9199 40.5064L37.7969 40.4285L37.9199 40.5064ZM36.1952 43.2262L36.0722 43.1481L36.0712 43.1499L36.1952 43.2262ZM34.5168 44.656L34.484 44.5138L34.4753 44.5164L34.5168 44.656ZM31.968 43.1641L31.8368 43.1009L31.8367 43.101L31.968 43.1641ZM32.8244 41.7201L32.7024 41.6406L32.8244 41.7201ZM12.8566 17.2388L12.7448 17.1454L12.8566 17.2388ZM17.8327 11.2394L17.7201 11.147L17.8327 11.2394ZM52.6715 18.3173L52.5583 18.2256L52.6715 18.3173ZM22.9978 20.1631L22.8859 20.07L22.9978 20.1631ZM39.4546 34.3111L39.5672 34.4034L39.4546 34.3111ZM34.2894 25.3873L34.1775 25.2941L34.2894 25.3873ZM4.61578 27.2331L4.50261 27.1414L4.61578 27.2331ZM23.4318 14.2753L23.4196 14.1302L23.4318 14.2753ZM33.8555 31.2751L33.8676 31.4202L33.8555 31.2751ZM52.5583 18.2256C49.2469 22.3128 46.7369 25.3207 44.3189 28.2183L44.5425 28.4049C46.9606 25.5072 49.4718 22.498 52.7846 18.409L52.5583 18.2256ZM39.0893 17.698H52.307V17.4067H39.0893V17.698ZM38.7653 34.0132V18.0221H38.474V34.0132H38.7653ZM44.3189 28.2183C42.6904 30.1697 41.1036 32.0714 39.342 34.2187L39.5672 34.4034C41.3279 32.2572 42.914 30.3564 44.5425 28.4049L44.3189 28.2183ZM34.2468 18.0221V25.0969H34.5381V18.0221H34.2468ZM29.5436 17.698H33.9227V17.4067H29.5436V17.698ZM23.1098 20.2563C24.5293 18.5503 26.6917 17.7356 29.5456 17.698L29.5417 17.4067C26.6355 17.445 24.3778 18.2769 22.8859 20.07L23.1098 20.2563ZM23.0405 27.5283V20.4535H22.7492V27.5283H23.0405ZM27.7436 27.8524H23.3645V28.1437H27.7436V27.8524ZM34.1775 25.2941C32.758 27.0001 30.5955 27.8148 27.7417 27.8524L27.7455 28.1437C30.6517 28.1054 32.9095 27.2735 34.4014 25.4804L34.1775 25.2941ZM31.4735 31.5005C32.4355 31.5005 33.2548 31.4716 33.8676 31.4202L33.8433 31.1299C33.2413 31.1804 32.4307 31.2093 31.4735 31.2093V31.5005ZM23.3645 31.5005H31.4735V31.2093H23.3645V31.5005ZM23.0405 36.8875V31.8246H22.7492V36.8875H23.0405ZM23.0404 37.1035L23.0405 36.8875L22.7492 36.8875L22.7491 37.1035L23.0404 37.1035ZM28.9913 44.2638C27.4644 44.2175 26.3333 44.179 25.4884 44.0389C24.6453 43.899 24.1159 43.662 23.7681 43.2413C23.4165 42.8161 23.2291 42.1782 23.1346 41.1831C23.0403 40.1903 23.0403 38.8712 23.0404 37.1035L22.7491 37.1035C22.749 38.8651 22.7487 40.2008 22.8446 41.2107C22.9404 42.2183 23.1337 42.9312 23.5436 43.427C23.9573 43.9273 24.5702 44.1818 25.4407 44.3262C26.3094 44.4703 27.4631 44.5089 28.9825 44.555L28.9913 44.2638ZM28.9869 45.1145C29.128 45.1145 29.2476 45.0684 29.3328 44.9863C29.4169 44.9052 29.4589 44.7968 29.4589 44.6891C29.4589 44.5815 29.4169 44.4731 29.3328 44.392C29.2476 44.3098 29.128 44.2637 28.9869 44.2637V44.555C29.0633 44.555 29.107 44.5789 29.1306 44.6017C29.1552 44.6254 29.1676 44.6569 29.1676 44.6891C29.1676 44.7213 29.1552 44.7529 29.1306 44.7766C29.107 44.7994 29.0633 44.8232 28.9869 44.8232V45.1145ZM23.8726 45.0387C25.7479 45.0735 27.9508 45.1145 28.9869 45.1145V44.8232C27.9542 44.8232 25.755 44.7823 23.878 44.7474L23.8726 45.0387ZM20.8434 44.9902C21.2655 44.9902 22.4778 45.0127 23.8726 45.0387L23.878 44.7474C22.4855 44.7215 21.2691 44.6989 20.8434 44.6989V44.9902ZM17.353 45.0387C18.9939 45.0127 20.421 44.9902 20.8434 44.9902V44.6989C20.418 44.6989 18.9872 44.7215 17.3484 44.7474L17.353 45.0387ZM11.5187 45.1145C12.5547 45.1145 15.1462 45.0736 17.353 45.0387L17.3484 44.7474C15.1399 44.7823 12.5517 44.8232 11.5187 44.8232V45.1145ZM11.5187 44.2637C11.3776 44.2637 11.258 44.3098 11.1729 44.392C11.0887 44.4731 11.0467 44.5815 11.0467 44.6891C11.0467 44.7968 11.0887 44.9052 11.1729 44.9863C11.258 45.0684 11.3776 45.1145 11.5187 45.1145V44.8232C11.4423 44.8232 11.3987 44.7994 11.3751 44.7766C11.3504 44.7529 11.338 44.7213 11.338 44.6891C11.338 44.6569 11.3504 44.6254 11.3751 44.6017C11.3987 44.5789 11.4423 44.555 11.5187 44.555V44.2637ZM18.522 36.8875C18.522 38.7076 18.4985 40.0652 18.3592 41.0853C18.2199 42.1055 17.9677 42.7629 17.5307 43.2034C17.0939 43.6439 16.4501 43.89 15.4731 44.0341C14.4958 44.1783 13.212 44.2171 11.5147 44.2638L11.5228 44.555C13.2135 44.5085 14.5172 44.4696 15.5156 44.3223C16.5143 44.175 17.2342 43.9161 17.7376 43.4085C18.2409 42.9011 18.5054 42.1676 18.6478 41.1247C18.7902 40.0817 18.8133 38.7041 18.8133 36.8875H18.522ZM18.522 31.8246V36.8875H18.8133V31.8246H18.522ZM5.36449 31.5005H18.1979V31.2093H5.36449V31.5005ZM1.83431 31.6864C3.19906 31.5624 4.37556 31.5005 5.36449 31.5005V31.2093C4.36416 31.2093 3.17842 31.2718 1.80794 31.3963L1.83431 31.6864ZM2.88921 28.0927C2.28212 28.8399 1.8247 29.4378 1.49992 29.9118C1.17739 30.3824 0.977629 30.742 0.896857 31.0098C0.856375 31.144 0.841026 31.2701 0.867524 31.3817C0.895847 31.5008 0.968625 31.5889 1.07183 31.6438C1.16862 31.6952 1.28678 31.7151 1.4113 31.7187C1.5376 31.7223 1.68302 31.7094 1.84273 31.6854L1.79952 31.3974C1.64841 31.42 1.52186 31.4304 1.41966 31.4275C1.31567 31.4245 1.2488 31.4079 1.20863 31.3866C1.17488 31.3686 1.15878 31.3474 1.15093 31.3143C1.14124 31.2736 1.14241 31.2044 1.17574 31.0939C1.24261 30.8722 1.41972 30.5441 1.7402 30.0764C2.05844 29.612 2.51017 29.0211 3.11528 28.2764L2.88921 28.0927ZM19.2443 4.96603C13.0422 14.7533 10.1961 19.2444 2.88994 28.0918L3.11455 28.2773C10.4327 19.4155 13.2866 14.9119 19.4904 5.12195L19.2443 4.96603ZM20.9691 2.24612C20.3645 3.19835 19.7914 4.10279 19.2443 4.96603L19.4904 5.12195C20.0374 4.2587 20.6105 3.35436 21.215 2.40226L20.9691 2.24612ZM22.7377 0.752497C22.3116 0.850835 21.9932 1.01704 21.7167 1.26842C21.4441 1.51623 21.2177 1.84214 20.968 2.24786L21.2161 2.40053C21.4637 1.99811 21.6724 1.70237 21.9127 1.48396C22.149 1.26911 22.4212 1.12449 22.8032 1.03633L22.7377 0.752497ZM25.4505 2.44938C25.6427 2.04893 25.7318 1.69106 25.7042 1.38821C25.6758 1.07702 25.5244 0.832742 25.2617 0.676084C25.0067 0.523953 24.6582 0.460866 24.2391 0.474938C23.8178 0.489082 23.3116 0.581607 22.729 0.754806L22.812 1.03402C23.3794 0.865318 23.8601 0.779122 24.2489 0.766069C24.6398 0.752945 24.9246 0.814186 25.1125 0.926253C25.2928 1.03379 25.3939 1.19358 25.4141 1.41468C25.435 1.6441 25.3687 1.94673 25.1879 2.32333L25.4505 2.44938ZM24.5849 3.90978C24.8981 3.42843 25.2092 2.95064 25.4504 2.44954L25.188 2.32317C24.9562 2.80448 24.6559 3.2665 24.3407 3.75093L24.5849 3.90978ZM23.0405 8.0433C23.0405 6.2883 23.8247 5.0783 24.5849 3.90978L24.3407 3.75093C23.5823 4.91668 22.7492 6.19264 22.7492 8.0433H23.0405ZM23.0405 13.7932V8.0433H22.7492V13.7932H23.0405ZM25.8138 14.0499C24.8518 14.0499 24.0325 14.0789 23.4196 14.1302L23.4439 14.4205C24.046 14.37 24.8566 14.3412 25.8138 14.3412V14.0499ZM33.9227 14.0499H25.8138V14.3412H33.9227V14.0499ZM34.2468 8.6629V13.7258H34.5381V8.6629H34.2468ZM34.2468 8.44687C34.2468 8.51816 34.2468 8.59017 34.2468 8.6629H34.5381C34.5381 8.59018 34.5381 8.51819 34.5381 8.4469L34.2468 8.44687ZM28.2959 1.2866C29.8229 1.33287 30.9539 1.37137 31.7989 1.51154C32.6419 1.6514 33.1713 1.88838 33.5192 2.30907C33.8708 2.73435 34.0581 3.37223 34.1526 4.36729C34.2469 5.36012 34.247 6.67924 34.2468 8.44688L34.5381 8.4469C34.5383 6.6853 34.5385 5.34965 34.4426 4.33975C34.3469 3.33208 34.1536 2.61926 33.7437 2.12346C33.33 1.62308 32.717 1.36859 31.8465 1.22417C30.9779 1.08007 29.8242 1.04148 28.3048 0.995441L28.2959 1.2866ZM28.3004 0.435896C28.1592 0.435896 28.0397 0.481991 27.9545 0.564118C27.8703 0.645263 27.8283 0.753629 27.8283 0.861282C27.8283 0.968935 27.8703 1.0773 27.9545 1.15845C28.0397 1.24057 28.1592 1.28667 28.3004 1.28667V0.995374C28.2239 0.995374 28.1803 0.971534 28.1567 0.948759C28.132 0.925002 28.1196 0.893498 28.1196 0.861282C28.1196 0.829066 28.132 0.797562 28.1567 0.773805C28.1803 0.75103 28.2239 0.72719 28.3004 0.72719V0.435896ZM33.4147 0.511747C31.5394 0.476871 29.3365 0.435896 28.3004 0.435896V0.72719C29.333 0.72719 31.5322 0.768083 33.4093 0.802992L33.4147 0.511747ZM36.4439 0.560224C36.0217 0.560224 34.8094 0.537686 33.4147 0.511747L33.4093 0.802992C34.8018 0.828888 36.0182 0.851519 36.4439 0.851519V0.560224ZM39.9342 0.51174C38.2934 0.537674 36.8663 0.560224 36.4439 0.560224V0.851519C36.8693 0.851519 38.3 0.8289 39.9388 0.802999L39.9342 0.51174ZM45.7685 0.435896C44.7326 0.435896 42.1411 0.476861 39.9342 0.51174L39.9388 0.802999C42.1473 0.768093 44.7356 0.72719 45.7685 0.72719V0.435896ZM45.7685 1.28667C45.9096 1.28667 46.0292 1.24057 46.1144 1.15845C46.1985 1.0773 46.2405 0.968935 46.2405 0.861282C46.2405 0.753629 46.1985 0.645263 46.1144 0.564118C46.0292 0.481991 45.9096 0.435896 45.7685 0.435896V0.72719C45.8449 0.72719 45.8886 0.75103 45.9122 0.773805C45.9368 0.797562 45.9492 0.829066 45.9492 0.861282C45.9492 0.893498 45.9368 0.925002 45.9122 0.948759C45.8886 0.971534 45.8449 0.995374 45.7685 0.995374V1.28667ZM38.7653 8.6629C38.7653 6.84282 38.7888 5.48521 38.9281 4.46514C39.0674 3.44496 39.3196 2.78754 39.7565 2.347C40.1934 1.90651 40.8372 1.66038 41.8142 1.51628C42.7915 1.37214 44.0753 1.33333 45.7725 1.28661L45.7645 0.995429C44.0738 1.04196 42.77 1.08086 41.7717 1.22811C40.773 1.3754 40.053 1.63436 39.5497 2.14187C39.0464 2.64934 38.7819 3.38285 38.6395 4.42574C38.4971 5.46875 38.474 6.84636 38.474 8.6629H38.7653ZM38.7653 13.7258V8.6629H38.474V13.7258H38.7653ZM51.9228 14.0499H39.0893V14.3412H51.9228V14.0499ZM55.4529 13.864C54.0882 13.988 52.9117 14.0499 51.9228 14.0499V14.3412C52.9231 14.3412 54.1088 14.2787 55.4793 14.1541L55.4529 13.864ZM54.398 17.4577C55.0051 16.7106 55.4626 16.1126 55.7873 15.6387C56.1099 15.168 56.3096 14.8084 56.3904 14.5406C56.4309 14.4064 56.4462 14.2803 56.4197 14.1688C56.3914 14.0496 56.3186 13.9616 56.2154 13.9067C56.1186 13.8552 56.0005 13.8353 55.876 13.8317C55.7497 13.8281 55.6042 13.841 55.4445 13.865L55.4877 14.1531C55.6388 14.1304 55.7654 14.12 55.8676 14.1229C55.9716 14.1259 56.0385 14.1425 56.0786 14.1638C56.1124 14.1818 56.1285 14.203 56.1363 14.2361C56.146 14.2769 56.1449 14.346 56.1115 14.4565C56.0446 14.6782 55.8675 15.0063 55.5471 15.474C55.2288 15.9384 54.7771 16.5293 54.172 17.274L54.398 17.4577ZM38.0429 40.5844C44.2451 30.7971 47.0911 26.306 54.3973 17.4586L54.1727 17.2732C46.8546 26.135 44.0007 30.6385 37.7969 40.4285L38.0429 40.5844ZM36.3182 43.3043C36.9228 42.3521 37.4959 41.4476 38.0429 40.5844L37.7969 40.4285C37.2498 41.2917 36.6768 42.1961 36.0723 43.1482L36.3182 43.3043ZM34.5495 44.7979C34.9757 44.6996 35.294 44.5334 35.5705 44.282C35.8431 44.0342 36.0696 43.7083 36.3193 43.3026L36.0712 43.1499C35.8235 43.5523 35.6148 43.848 35.3746 44.0665C35.1382 44.2813 34.866 44.4259 34.484 44.5141L34.5495 44.7979ZM31.8367 43.101C31.6445 43.5015 31.5555 43.8594 31.5831 44.1622C31.6115 44.4734 31.7629 44.7177 32.0255 44.8743C32.2806 45.0265 32.629 45.0896 33.0482 45.0755C33.4695 45.0613 33.9757 44.9688 34.5583 44.7956L34.4753 44.5164C33.9078 44.6851 33.4272 44.7713 33.0384 44.7843C32.6475 44.7975 32.3626 44.7362 32.1748 44.6242C31.9945 44.5166 31.8933 44.3568 31.8732 44.1357C31.8522 43.9063 31.9186 43.6037 32.0993 43.2271L31.8367 43.101ZM32.7024 41.6406C32.3892 42.122 32.0781 42.5998 31.8368 43.1009L32.0993 43.2272C32.331 42.7459 32.6314 42.2839 32.9465 41.7995L32.7024 41.6406ZM34.2468 37.5071C34.2468 39.2621 33.4626 40.4721 32.7024 41.6406L32.9465 41.7995C33.705 40.6337 34.5381 39.3578 34.5381 37.5071H34.2468ZM34.2468 31.7572V37.5071H34.5381V31.7572H34.2468ZM4.72895 27.3248C8.04037 23.2376 10.5504 20.2297 12.9684 17.3321L12.7448 17.1454C10.3266 20.0432 7.81547 23.0524 4.50261 27.1414L4.72895 27.3248ZM18.1979 27.8524H4.98027V28.1437H18.1979V27.8524ZM18.522 11.5372V27.5283H18.8133V11.5372H18.522ZM12.9684 17.3321C14.5968 15.3807 16.1837 13.4791 17.9453 11.3317L17.7201 11.147C15.9594 13.2932 14.3732 15.194 12.7448 17.1454L12.9684 17.3321ZM18.8133 11.5372C18.8133 10.9581 18.0866 10.7002 17.7201 11.147L17.9453 11.3317C18.139 11.0955 18.522 11.2329 18.522 11.5372H18.8133ZM38.474 13.7258C38.474 14.0657 38.7495 14.3412 39.0893 14.3412V14.0499C38.9104 14.0499 38.7653 13.9048 38.7653 13.7258H38.474ZM52.7846 18.409C53.1103 18.0071 52.8246 17.4067 52.307 17.4067V17.698C52.5792 17.698 52.7299 18.0139 52.5583 18.2256L52.7846 18.409ZM18.8133 31.8246C18.8133 31.4848 18.5378 31.2093 18.1979 31.2093V31.5005C18.3769 31.5005 18.522 31.6456 18.522 31.8246H18.8133ZM18.1979 28.1437C18.5378 28.1437 18.8133 27.8682 18.8133 27.5283H18.522C18.522 27.7073 18.3769 27.8524 18.1979 27.8524V28.1437ZM33.9227 14.3412C34.2626 14.3412 34.5381 14.0657 34.5381 13.7258H34.2468C34.2468 13.9048 34.1017 14.0499 33.9227 14.0499V14.3412ZM23.3645 31.2093C23.0247 31.2093 22.7492 31.4848 22.7492 31.8246H23.0405C23.0405 31.6456 23.1855 31.5005 23.3645 31.5005V31.2093ZM22.7492 27.5283C22.7492 27.8682 23.0247 28.1437 23.3645 28.1437V27.8524C23.1855 27.8524 23.0405 27.7073 23.0405 27.5283H22.7492ZM22.8859 20.07C22.7953 20.1789 22.7492 20.3155 22.7492 20.4535H23.0405C23.0405 20.3799 23.065 20.3101 23.1098 20.2563L22.8859 20.07ZM34.5381 18.0221C34.5381 17.6822 34.2626 17.4067 33.9227 17.4067V17.698C34.1017 17.698 34.2468 17.8431 34.2468 18.0221H34.5381ZM38.474 34.0132C38.474 34.5923 39.2007 34.8502 39.5672 34.4034L39.342 34.2187C39.1482 34.4549 38.7653 34.3175 38.7653 34.0132H38.474ZM39.0893 17.4067C38.7495 17.4067 38.474 17.6822 38.474 18.0221H38.7653C38.7653 17.8431 38.9104 17.698 39.0893 17.698V17.4067ZM34.2468 25.0969C34.2468 25.1706 34.2222 25.2403 34.1775 25.2941L34.4014 25.4804C34.492 25.3716 34.5381 25.2349 34.5381 25.0969H34.2468ZM4.50261 27.1414C4.17696 27.5433 4.46265 28.1437 4.98027 28.1437V27.8524C4.70805 27.8524 4.55739 27.5365 4.72895 27.3248L4.50261 27.1414ZM22.7492 13.7932C22.7492 14.1685 23.0793 14.451 23.4439 14.4205L23.4196 14.1302C23.2155 14.1473 23.0405 13.9887 23.0405 13.7932H22.7492ZM33.8676 31.4202C34.0718 31.4031 34.2468 31.5617 34.2468 31.7572H34.5381C34.5381 31.3819 34.2079 31.0994 33.8433 31.1299L33.8676 31.4202Z" fill="white" mask="url(#path-2-outside-1_112_1328)"/>
<path d="M85.417 0.364785V5.10699H70.1101V8.19364H85.0464V12.9639H70.1101V21.2417H63.4971V0.364785H85.417Z" fill="white"/>
<path d="M103.523 0C105.746 0 107.656 0.168362 109.252 0.505087C110.848 0.841812 112.197 1.29078 113.3 1.85199C114.421 2.41319 115.314 3.05858 115.979 3.78815C116.644 4.49902 117.157 5.23794 117.518 6.00492C117.898 6.7532 118.145 7.51083 118.259 8.27782C118.373 9.02609 118.43 9.7089 118.43 10.3262V11.168C118.43 11.7854 118.373 12.4682 118.259 13.2164C118.145 13.9647 117.908 14.7317 117.547 15.5174C117.186 16.2844 116.663 17.0327 115.979 17.7622C115.314 18.4918 114.43 19.1465 113.328 19.7265C112.226 20.2877 110.867 20.746 109.252 21.1014C107.656 21.4381 105.746 21.6065 103.523 21.6065H102.297C100.055 21.6065 98.1258 21.4381 96.5105 21.1014C94.9143 20.746 93.5651 20.2877 92.4629 19.7265C91.3607 19.1465 90.4676 18.4918 89.7835 17.7622C89.1184 17.0327 88.6053 16.2844 88.2443 15.5174C87.8832 14.7317 87.6457 13.9647 87.5316 13.2164C87.4176 12.4682 87.3606 11.7854 87.3606 11.168V10.3262C87.3606 9.7089 87.4176 9.02609 87.5316 8.27782C87.6457 7.51083 87.8832 6.7532 88.2443 6.00492C88.6053 5.23794 89.1184 4.49902 89.7835 3.78815C90.4676 3.05858 91.3607 2.41319 92.4629 1.85199C93.5651 1.29078 94.9143 0.841812 96.5105 0.505087C98.1258 0.168362 100.055 0 102.297 0H103.523ZM111.475 10.5226C111.475 9.92403 111.361 9.3067 111.133 8.67066C110.924 8.01592 110.506 7.42665 109.879 6.90286C109.252 6.36036 108.378 5.92074 107.257 5.58402C106.136 5.22859 104.682 5.05087 102.896 5.05087C101.071 5.05087 99.5985 5.22859 98.4773 5.58402C97.3562 5.92074 96.482 6.36036 95.8549 6.90286C95.2468 7.42665 94.8383 8.01592 94.6292 8.67066C94.4202 9.3067 94.3157 9.92403 94.3157 10.5226V10.8594C94.3157 11.458 94.4202 12.094 94.6292 12.7675C94.8573 13.4222 95.2848 14.0302 95.9119 14.5914C96.539 15.1526 97.4132 15.6203 98.5344 15.9944C99.6555 16.3499 101.109 16.5276 102.896 16.5276C104.682 16.5276 106.126 16.3499 107.228 15.9944C108.349 15.639 109.224 15.19 109.851 14.6475C110.478 14.0863 110.905 13.4783 111.133 12.8236C111.361 12.1502 111.475 11.5141 111.475 10.9155V10.5226Z" fill="white"/>
<path d="M127.454 9.20381H137.516C138.466 9.20381 139.15 9.00739 139.568 8.61454C139.986 8.2217 140.195 7.73532 140.195 7.1554V7.12734C140.195 6.58484 139.986 6.11717 139.568 5.72432C139.169 5.31277 138.485 5.10699 137.516 5.10699H127.454V9.20381ZM127.454 21.2417H120.812V0.364785H137.915C139.682 0.364785 141.155 0.505087 142.333 0.785691C143.511 1.06629 144.452 1.45914 145.155 1.96423C145.877 2.45061 146.381 3.02117 146.666 3.67591C146.97 4.33065 147.122 5.03216 147.122 5.78044V6.11717C147.122 6.86544 146.979 7.50148 146.694 8.02527C146.428 8.54907 146.086 8.99803 145.668 9.37217C145.269 9.7276 144.841 10.0082 144.385 10.214C143.929 10.4198 143.53 10.5788 143.188 10.691C143.72 10.8407 144.233 11.0464 144.727 11.3083C145.221 11.5702 145.649 11.907 146.01 12.3185C146.371 12.7114 146.656 13.1697 146.865 13.6935C147.093 14.2173 147.207 14.8159 147.207 15.4893V18.5479C147.207 19.3897 147.245 19.9884 147.321 20.3438C147.416 20.6805 147.511 20.9331 147.606 21.1014V21.2417H140.851C140.756 21.1108 140.68 20.9518 140.623 20.7647C140.566 20.5776 140.537 20.297 140.537 19.9229V17.5097C140.537 16.2376 140.205 15.3116 139.54 14.7317C138.893 14.1331 137.753 13.8338 136.119 13.8338H127.454V21.2417Z" fill="white"/>
<path d="M157.834 5.30342H148.713V0.364785H173.682V5.30342H164.533V21.2417H157.834V5.30342Z" fill="white"/>
<path d="M185.327 13.1603L173.982 0.364785H182.22L188.805 8.05333L195.503 0.364785H203L191.969 13.1603V21.2417H185.327V13.1603Z" fill="white"/>
<path d="M85.4212 23.8581V28.7034H70.1114V31.8571H85.0506V36.7311H70.1114V45.1888H63.4971V23.8581H85.4212Z" fill="white"/>
<path d="M103.53 23.4854C105.754 23.4854 107.664 23.6574 109.261 24.0014C110.857 24.3455 112.207 24.8042 113.309 25.3776C114.431 25.951 115.324 26.6104 115.989 27.3559C116.654 28.0822 117.168 28.8372 117.529 29.6208C117.909 30.3854 118.156 31.1595 118.27 31.9431C118.384 32.7077 118.441 33.4053 118.441 34.0361V34.8962C118.441 35.5269 118.384 36.2246 118.27 36.9891C118.156 37.7537 117.918 38.5373 117.557 39.3401C117.196 40.1237 116.673 40.8883 115.989 41.6337C115.324 42.3791 114.44 43.0481 113.338 43.6406C112.235 44.2141 110.876 44.6823 109.261 45.0455C107.664 45.3895 105.754 45.5616 103.53 45.5616H102.304C100.062 45.5616 98.1324 45.3895 96.5169 45.0455C94.9203 44.6823 93.5709 44.2141 92.4685 43.6406C91.3661 43.0481 90.4728 42.3791 89.7885 41.6337C89.1233 40.8883 88.6101 40.1237 88.249 39.3401C87.8879 38.5373 87.6503 37.7537 87.5363 36.9891C87.4222 36.2246 87.3652 35.5269 87.3652 34.8962V34.0361C87.3652 33.4053 87.4222 32.7077 87.5363 31.9431C87.6503 31.1595 87.8879 30.3854 88.249 29.6208C88.6101 28.8372 89.1233 28.0822 89.7885 27.3559C90.4728 26.6104 91.3661 25.951 92.4685 25.3776C93.5709 24.8042 94.9203 24.3455 96.5169 24.0014C98.1324 23.6574 100.062 23.4854 102.304 23.4854H103.53ZM111.485 34.2368C111.485 33.6251 111.371 32.9944 111.142 32.3445C110.933 31.6755 110.515 31.0735 109.888 30.5383C109.261 29.984 108.387 29.5348 107.265 29.1908C106.144 28.8276 104.69 28.646 102.903 28.646C101.078 28.646 99.6055 28.8276 98.4841 29.1908C97.3627 29.5348 96.4884 29.984 95.8612 30.5383C95.2529 31.0735 94.8443 31.6755 94.6352 32.3445C94.4262 32.9944 94.3216 33.6251 94.3216 34.2368V34.5808C94.3216 35.1924 94.4262 35.8423 94.6352 36.5304C94.8633 37.1994 95.291 37.8206 95.9182 38.394C96.5454 38.9674 97.4197 39.4452 98.5411 39.8275C99.6625 40.1906 101.116 40.3722 102.903 40.3722C104.69 40.3722 106.134 40.1906 107.237 39.8275C108.358 39.4643 109.232 39.0056 109.86 38.4513C110.487 37.8779 110.914 37.2567 111.142 36.5877C111.371 35.8996 111.485 35.2498 111.485 34.6381V34.2368Z" fill="white"/>
<path d="M133.795 45.5042C131.894 45.5042 130.25 45.3226 128.863 44.9595C127.475 44.5772 126.288 44.0803 125.299 43.4686C124.33 42.857 123.532 42.1593 122.904 41.3757C122.296 40.5729 121.811 39.7606 121.45 38.9387C121.108 38.0977 120.871 37.2663 120.738 36.4444C120.624 35.6225 120.567 34.8771 120.567 34.2081V23.8581H127.238V33.8067C127.238 34.4948 127.333 35.202 127.523 35.9283C127.713 36.6546 128.065 37.3236 128.578 37.9352C129.091 38.5278 129.804 39.0152 130.716 39.3974C131.628 39.7797 132.807 39.9708 134.251 39.9708C135.677 39.9708 136.836 39.7797 137.73 39.3974C138.642 39.0152 139.355 38.5278 139.868 37.9352C140.381 37.3236 140.733 36.6546 140.923 35.9283C141.113 35.202 141.208 34.4948 141.208 33.8067V23.8581H147.851V34.2081C147.851 34.8771 147.774 35.6225 147.622 36.4444C147.489 37.2663 147.242 38.0977 146.881 38.9387C146.52 39.7606 146.026 40.5729 145.399 41.3757C144.79 42.1593 144.002 42.857 143.032 43.4686C142.063 44.0803 140.904 44.5772 139.554 44.9595C138.205 45.3226 136.627 45.5042 134.821 45.5042H133.795Z" fill="white"/>
<path d="M157.479 32.8892H167.543C168.494 32.8892 169.178 32.6886 169.596 32.2872C170.014 31.8858 170.223 31.3888 170.223 30.7963V30.7676C170.223 30.2133 170.014 29.7355 169.596 29.3341C169.197 28.9136 168.513 28.7034 167.543 28.7034H157.479V32.8892ZM157.479 45.1888H150.836V23.8581H167.942C169.71 23.8581 171.183 24.0014 172.361 24.2881C173.54 24.5748 174.481 24.9762 175.184 25.4923C175.906 25.9892 176.41 26.5722 176.695 27.2412C176.999 27.9102 177.151 28.6269 177.151 29.3915V29.7355C177.151 30.5 177.009 31.1499 176.723 31.6851C176.457 32.2203 176.115 32.679 175.697 33.0613C175.298 33.4244 174.87 33.7111 174.414 33.9214C173.958 34.1316 173.559 34.2941 173.217 34.4088C173.749 34.5617 174.262 34.7719 174.756 35.0395C175.25 35.3071 175.678 35.6512 176.039 36.0717C176.4 36.473 176.685 36.9413 176.895 37.4765C177.123 38.0117 177.237 38.6233 177.237 39.3114V42.4365C177.237 43.2966 177.275 43.9082 177.351 44.2714C177.446 44.6154 177.541 44.8735 177.636 45.0455V45.1888H170.879C170.784 45.0551 170.708 44.8926 170.651 44.7015C170.594 44.5103 170.565 44.2236 170.565 43.8413V41.3757C170.565 40.076 170.233 39.1298 169.567 38.5373C168.921 37.9257 167.781 37.6199 166.146 37.6199H157.479V45.1888Z" fill="white"/>
</svg>
